<svg xmlns="http://www.w3.org/2000/svg" width="135.663" height="78.5" viewBox="0 0 135.663 78.5">
  <g id="Group_601" data-name="Group 601" transform="translate(-58 -80.5)">
    <g id="BYUIdaho_logo_white" transform="translate(58 80.5)">
      <path id="Path_1440" data-name="Path 1440" d="M102.226,62.68V56.126a5.467,5.467,0,0,0-.074-.9,6.576,6.576,0,0,0,.9.074h4.94c3.762,0,5.967.583,5.967,4,0,2.221-1.376,4.2-5.814,4.2h-5.09a7.948,7.948,0,0,0-.886.057A7.546,7.546,0,0,0,102.226,62.68Zm0,15.042V70.138a6.069,6.069,0,0,0-.062-.886,7.4,7.4,0,0,0,.888.062h4.18c3.332,0,7.41,0,7.41,4.615,0,3.414-2.924,4.612-6.85,4.612h-4.739a6.5,6.5,0,0,0-.874.065s.046-.451.046-.884ZM90.245,51.233V82.795c0,1.023.062,1.386-.664,1.837a6.881,6.881,0,0,1-2.606.712h-.021c-.117.029-.095.471.021.471h25.532c10.77,0,15.3-4.274,15.3-10.94,0-4.93-2.295-7.942-6.839-9.074a.074.074,0,0,1,0-.146c2.895-.9,5.558-3,5.558-8.129,0-6.958-4.7-9.314-14.956-9.314H86.982c-.117,0-.141.44-.022.47h.021a6.86,6.86,0,0,1,2.606.712c.724.449.662.807.662,1.83Z" transform="translate(-86.604 -48.21)" fill="#fff"/>
      <path id="Path_1441" data-name="Path 1441" d="M1149.306,51.219c0-1.032-.057-1.376.665-1.834a6.883,6.883,0,0,1,2.608-.712h.022c.117-.029.095-.47-.022-.47h-18.834c-.117,0-.139.44-.021.47h.021a5.264,5.264,0,0,1,2.453.712c.724.449.662.812.662,1.835V70.189c0,4.324-2.475,7.649-7.4,7.649s-7.4-3.325-7.4-7.649V51.225c0-1.023-.06-1.388.664-1.837a5.6,5.6,0,0,1,2.451-.712h.022c.119-.029.1-.47-.022-.47h-17.772c-.134,0-.107.442,0,.466h.024a2.3,2.3,0,0,1,1.5.418c.593.5.688,1.1.688,2.128V69.871c0,8.991,4.918,16.621,19.843,16.621s19.841-7.63,19.841-16.621Z" transform="translate(-1017.016 -48.204)" fill="#fff"/>
      <path id="Path_1442" data-name="Path 1442" d="M583.657,85.8c.119,0,.143-.44.028-.47h-.026a6.9,6.9,0,0,1-2.6-.712c-.724-.452-.664-.815-.664-1.839V70.8l13.025-19.339a9.27,9.27,0,0,1,1.756-2.107,5.892,5.892,0,0,1,.483-.344,2.626,2.626,0,0,1,1.409-.344.071.071,0,0,1,.021,0c.12-.015.155-.466.019-.466H579.537c-.143,0-.115.459,0,.471h.021c.86,0,1.9,0,1.732,1.232-.1,1.185-5.16,8.508-6.963,11.287a3.452,3.452,0,0,0-.547,1.309,3.31,3.31,0,0,0-.583-1.3c-2.513-3.741-6.812-9.8-6.937-11.294-.1-1.269.879-1.233,1.732-1.233h.022c.12-.012.172-.466.022-.466H549.6c-.11,0-.1.425.01.466h.022a4.86,4.86,0,0,1,2.14.475,3.275,3.275,0,0,1,.466.308,8.518,8.518,0,0,1,1.66,2.011l13,19.257v12.06c0,1.023.06,1.386-.664,1.837a6.852,6.852,0,0,1-2.6.712h-.022c-.119.029-.1.47.022.47Z" transform="translate(-508.435 -48.204)" fill="#fff"/>
      <g id="Group_599" data-name="Group 599" transform="translate(18.284 54.406)">
        <path id="Path_1443" data-name="Path 1443" d="M311.276,687.471c-2.517,2.516-5.289,3.612-9.959,3.612-1.608,0-4.2-.074-5.547-.074s-3.027.074-4.634.074c-.11,0-.146-.434.036-.475a5.887,5.887,0,0,0,2.48-.619c.478-.255.765-.877.765-8.064v-5.332c0-7.188-.287-7.844-.765-8.066a5.98,5.98,0,0,0-2.48-.621c-.182-.035-.146-.473-.036-.473,1.6,0,3.282.072,4.634.072s4.706-.072,6.349-.072c7.333,0,12.622,4.925,12.622,11.525a12.227,12.227,0,0,1-3.464,8.513Zm-10.29-18.828c-2.19,0-3.1.294-3.358.623-.218.289-.547,1.892-.547,7.224v5.436c0,4.674.327,6.494.8,7.006.659.688,1.5.948,3.4.948,7.151,0,10.434-3.392,10.434-10.252a10.493,10.493,0,0,0-10.727-10.985Z" transform="translate(-291.044 -667.215)" fill="#fff"/>
        <path id="Path_1444" data-name="Path 1444" d="M628.038,689.873c-.108,0-.145-.433,0-.475,1.128-.108,1.825-.327,1.825-.874,0-.621-.475-2.262-2.556-7.519h-7.548a28.9,28.9,0,0,0-2.118,7.264c0,.655.516.984,2.081,1.128.145.04.107.475,0,.475h-7.481c-.11,0-.182-.433,0-.475a4.748,4.748,0,0,0,2.3-.688c.368-.294,1.022-.805,3.648-7.992l1.935-5.332c1.132-3.065,2.336-6.241,3.249-9.086.072-.253,1.166-.253,1.239,0,1.1,3.175,2.045,5.764,3.322,9.086l2.078,5.332c2.845,7.187,3.322,7.741,3.831,8.064a4.436,4.436,0,0,0,2.192.619c.141.04.11.475,0,.475Zm-4.524-19.152-3.212,8.792h6.458Z" transform="translate(-583.8 -666.007)" fill="#fff"/>
        <path id="Path_1445" data-name="Path 1445" d="M959.3,691.082c-.148,0-.148-.433.036-.475a5.894,5.894,0,0,0,2.48-.619c.439-.255.764-.877.764-8.064v-2.262H948.79v2.262c0,7.187.332,7.808.769,8.064a5.883,5.883,0,0,0,2.481.619c.184.04.184.475.074.475h-9.275c-.11,0-.146-.433.038-.475a5.888,5.888,0,0,0,2.48-.619c.473-.255.767-.877.767-8.064v-5.332c0-7.188-.294-7.844-.767-8.066a5.985,5.985,0,0,0-2.48-.621c-.184-.034-.15-.473-.038-.473h9.268c.11,0,.11.439-.074.473a5.982,5.982,0,0,0-2.48.621c-.437.222-.769.877-.769,8.066v1.72h13.79v-1.72c0-7.188-.325-7.844-.764-8.066a5.994,5.994,0,0,0-2.48-.621c-.184-.034-.184-.473-.036-.473h9.23c.145,0,.145.439-.036.473a6.025,6.025,0,0,0-2.485.621c-.435.222-.767.877-.767,8.066v5.332c0,7.187.332,7.808.767,8.064a5.92,5.92,0,0,0,2.485.619c.181.04.181.475.036.475Z" transform="translate(-885.25 -667.216)" fill="#fff"/>
        <path id="Path_1446" data-name="Path 1446" d="M1333.63,689.041a11.525,11.525,0,0,1-11.895-11.75,12.327,12.327,0,0,1,12.409-12.332,11.508,11.508,0,0,1,11.891,11.748,12.3,12.3,0,0,1-12.405,12.333Zm-.184-22.733c-6.536,0-8.681,5.219-8.681,9.925,0,5.948,3.757,11.456,9.591,11.456,6.5,0,8.649-5.219,8.649-9.925,0-5.943-3.719-11.456-9.559-11.456Z" transform="translate(-1230.798 -664.953)" fill="#fff"/>
      </g>
      <path id="Path_1447" data-name="Path 1447" d="M84.105,567.292a.306.306,0,1,0,0,.612h131.19a.306.306,0,1,0,0-.612Z" transform="translate(-83.799 -521.496)" fill="#fff"/>
      <g id="Group_600" data-name="Group 600" transform="translate(0.202 54.621)">
        <path id="Path_1448" data-name="Path 1448" d="M86.15,691.07c-.108,0-.108-.435.038-.475A8.15,8.15,0,0,0,89,689.974c.439-.255.765-.874.765-8.06v-5.332c0-7.185-.327-7.842-.765-8.062a8.287,8.287,0,0,0-2.809-.621c-.148-.036-.148-.475-.038-.475H96c.11,0,.146.439-.036.475a7.99,7.99,0,0,0-2.771.621c-.475.22-.805.877-.805,8.062v5.332c0,7.187.33,7.806.805,8.06a7.845,7.845,0,0,0,2.771.621c.182.038.146.475.036.475Z" transform="translate(-86.071 -667.424)" fill="#fff"/>
      </g>
    </g>
  </g>
</svg>
